<svg width="33" height="33" viewBox="0 0 33 33" fill="none" xmlns="http://www.w3.org/2000/svg">
<path d="M24.544 8.5701C23.7695 6.19645 24.3129 3.64272 25.1461 1.28898C25.2432 1.01474 25.2122 0.708911 25.0568 0.458836C24.8802 0.173699 24.5695 0 24.2344 0H8.7795C8.44434 0 8.13367 0.173699 7.95713 0.458836C7.78059 0.743973 7.76454 1.09988 7.91465 1.3992C8.98724 3.54333 9.20812 6.05775 8.54444 8.33974C7.90524 10.3564 6.96956 12.1946 6.06417 13.9715C5.7854 14.5183 5.51231 15.0572 5.24927 15.5942L9.60574 17.7725C13.8658 19.9025 19.1342 19.9025 23.3942 17.7725L27.7614 15.5891C27.5018 15.0607 27.2321 14.5308 26.9575 13.9932C26.0834 12.2849 25.1789 10.5164 24.544 8.5701ZM16.4999 17.4666C15.9659 17.4666 15.533 17.0337 15.533 16.4998C15.533 15.9657 15.9659 15.533 16.4999 15.533C17.0338 15.533 17.4667 15.9657 17.4667 16.4998C17.4667 17.0337 17.0338 17.4666 16.4999 17.4666Z" fill="white"/>
<path d="M0.966817 7.79861H2.56458L2.2813 8.08188C1.90366 8.4595 1.90366 9.07135 2.2813 9.44898C2.65894 9.8266 3.2708 9.8266 3.64844 9.44898L5.58208 7.51541C5.95972 7.13778 5.95972 6.52593 5.58208 6.14831L3.64844 4.21474C3.2708 3.83711 2.65894 3.83711 2.2813 4.21474C1.90366 4.59236 1.90366 5.20421 2.2813 5.58184L2.56458 5.86504H0.966817C0.432425 5.86504 0 6.29745 0 6.83183C0 7.3662 0.432425 7.79861 0.966817 7.79861Z" fill="white"/>
<path d="M32.033 5.8651H30.4352L30.7185 5.58184C31.0962 5.20421 31.0962 4.59236 30.7185 4.21474C30.3409 3.83711 29.729 3.83711 29.3514 4.21474L27.4178 6.14831C27.0401 6.52593 27.0401 7.13778 27.4178 7.51541L29.3514 9.44898C29.729 9.8266 30.3409 9.8266 30.7185 9.44898C31.0962 9.07135 31.0962 8.4595 30.7185 8.08188L30.4352 7.79867H32.033C32.5674 7.79867 32.9998 7.36626 32.9998 6.83189C32.9998 6.29752 32.5674 5.8651 32.033 5.8651Z" fill="white"/>
<path d="M28.5658 17.3492L24.2594 19.5022C21.8622 20.7003 19.1799 21.3338 16.5004 21.3338C13.8209 21.3338 11.1386 20.7003 8.74131 19.5022L4.44729 17.3552C4.04909 18.2951 3.70272 19.2458 3.46539 20.2433C3.21518 21.2943 3.05443 22.3575 2.96143 23.4245C7.54613 22.4234 11.5825 23.7496 15.2503 27.4177C15.6317 27.7265 17.37 27.7274 17.7571 27.4111C20.3418 24.8251 24.1661 22.1074 30.0537 23.4333C29.9609 22.3633 29.8005 21.297 29.5496 20.2433C29.3106 19.2385 28.9638 18.287 28.5658 17.3492Z" fill="white"/>
<path d="M19.1176 28.7849C18.9445 28.958 18.7014 29.0921 18.4341 29.2082V32.033C18.4341 32.5669 18.867 32.9997 19.4009 32.9997H28.1022C28.5107 32.9997 28.885 32.74 29.0144 32.3525C29.756 30.1328 30.092 27.7589 30.1041 25.4436C24.9034 24.1006 21.5661 26.3365 19.1176 28.7849Z" fill="white"/>
<path d="M2.91138 25.42C2.92092 27.7432 3.25634 30.1254 4.00046 32.3528C4.12989 32.7403 4.50411 33 4.91262 33H13.5998C14.1337 33 14.5666 32.5671 14.5666 32.0332V29.2085C14.2993 29.0923 14.0562 28.9583 13.8831 28.7851C11.3864 26.2886 8.04556 24.1045 2.91138 25.42Z" fill="white"/>
</svg>
