<svg width="33" height="33" viewBox="0 0 33 33" fill="none" xmlns="http://www.w3.org/2000/svg">
<g clip-path="url(#clip0_74_1007)">
<path d="M24.0648 1.57141H20.5199V3.76411H22.9684V8.66113C22.9684 12.3489 19.9681 15.3489 16.2807 15.3489H15.7691C12.0813 15.3489 9.08137 12.3485 9.08137 8.66113V3.76411H11.5299V1.57141H7.98502C7.37948 1.57141 6.88867 2.06222 6.88867 2.66776V8.66113C6.88867 13.5578 10.8725 17.5415 15.7691 17.5415H16.2807C21.1774 17.5415 25.1611 13.5578 25.1611 8.66113V2.66776C25.1611 2.06222 24.6703 1.57141 24.0648 1.57141Z" fill="white"/>
<path d="M20.4103 0C19.8048 0 19.314 0.490811 19.314 1.09635V4.16612C19.314 4.77166 19.8048 5.26247 20.4103 5.26247C21.0158 5.26247 21.5067 4.77166 21.5067 4.16612V1.09635C21.5067 0.490811 21.0158 0 20.4103 0Z" fill="white"/>
<path d="M11.7492 0C11.1436 0 10.6528 0.490811 10.6528 1.09635V4.16612C10.6528 4.77166 11.1436 5.26247 11.7492 5.26247C12.3547 5.26247 12.8455 4.77166 12.8455 4.16612V1.09635C12.8455 0.490811 12.3547 0 11.7492 0Z" fill="white"/>
<path d="M17.1943 22.6218V16.4092H15.0016V22.6218H11.4567C8.59525 22.6218 6.26733 24.9497 6.26733 27.8108C6.26733 30.6723 8.61169 33.0002 11.4933 33.0002H12.0049C14.8663 33.0002 17.1943 30.6723 17.1943 27.8108V24.8145H20.9218V22.6218H17.1943ZM15.0016 27.8104C15.0016 29.4626 13.6571 30.8071 12.0049 30.8071H11.4933C9.79247 30.8071 8.46003 29.4911 8.46003 27.8104C8.46003 26.1582 9.80452 24.8141 11.4567 24.8141H15.0016V27.8104Z" fill="white"/>
<path d="M23.2974 20.2828C21.4036 20.2828 19.8625 21.8236 19.8625 23.7181C19.8625 25.6118 21.4033 27.1529 23.2974 27.1529C25.1915 27.1529 26.7326 25.6118 26.7326 23.7181C26.7326 21.8239 25.1919 20.2828 23.2974 20.2828ZM23.2974 24.9599C22.6125 24.9599 22.0552 24.4026 22.0552 23.7177C22.0552 23.0325 22.6126 22.4752 23.2974 22.4752C23.9826 22.4752 24.5399 23.0325 24.5399 23.7177C24.5399 24.4026 23.9826 24.9599 23.2974 24.9599Z" fill="white"/>
</g>
<defs>
<clipPath id="clip0_74_1007">
<rect width="33" height="33" fill="white"/>
</clipPath>
</defs>
</svg>
