<svg width="20" height="20" viewBox="0 0 20 20" fill="none" xmlns="http://www.w3.org/2000/svg">
<path fill-rule="evenodd" clip-rule="evenodd" d="M8.30663 15.4266C4.37997 15.4266 1.18666 12.2333 1.18666 8.30663C1.18666 4.37997 4.37997 1.18666 8.30663 1.18666C12.2333 1.18666 15.4266 4.37997 15.4266 8.30663C15.4266 12.2333 12.2333 15.4266 8.30663 15.4266ZM14.5769 13.738C15.8419 12.2808 16.6133 10.3833 16.6133 8.30663C16.6133 3.7273 12.886 0 8.30663 0C3.7273 0 0 3.7273 0 8.30663C0 12.886 3.7273 16.6133 8.30663 16.6133C10.3833 16.6133 12.2808 15.8419 13.738 14.5769L19.1598 20L20 19.1598L14.5769 13.738Z" fill="#7E6D6D"/>
</svg>
