<svg width="33" height="33" viewBox="0 0 33 33" fill="none" xmlns="http://www.w3.org/2000/svg">
<g clip-path="url(#clip0_74_976)">
<path d="M30.8155 20.3605L12.5982 2.14322C9.7452 -0.709443 5.06579 -0.713182 2.15854 2.14322C-0.719513 5.02127 -0.719513 9.70442 2.15854 12.5825L20.3758 30.7997C21.8149 32.2388 23.7049 32.9583 25.5955 32.9583C27.4856 32.9583 29.3761 32.2388 30.8155 30.8001C33.6931 27.9221 33.6931 23.2385 30.8155 20.3605ZM29.0471 29.0314C27.1437 30.9335 24.0472 30.9335 22.1442 29.0314L3.92734 10.8141C2.02428 8.91112 2.02428 5.81418 3.91942 3.91911C4.88281 2.97241 6.14094 2.49926 7.39405 2.49926C8.64343 2.49926 9.88777 2.9699 10.8299 3.91118L29.0472 22.1285C30.9497 24.0318 30.9497 27.1283 29.0471 29.0314Z" fill="white"/>
<path d="M30.8151 2.18323C29.4298 0.797994 27.5756 0.034668 25.5954 0.034668C23.6153 0.034668 21.7611 0.797542 20.3757 2.18323L2.15854 20.4005C-0.719513 23.2786 -0.719513 27.9617 2.15854 30.8398C3.5976 32.2788 5.48764 32.9988 7.3782 32.9988C9.26876 32.9988 11.1588 32.2793 12.5974 30.8398L30.8563 12.5808C32.247 11.1906 33.0086 9.34011 32.9999 7.37041C32.9915 5.40147 32.2128 3.55642 30.8151 2.18323ZM29.0884 10.8125L10.8294 29.0714C8.92599 30.9736 5.8295 30.9744 3.92689 29.0714C2.02428 27.168 2.02428 24.0719 3.92689 22.1689L22.1442 3.95159C23.0946 3.00115 24.3431 2.52548 25.5925 2.52548C26.8448 2.52548 28.0983 3.00321 29.0546 3.95951C29.9805 4.86954 30.4932 6.08475 30.4991 7.38117C30.5045 8.6785 30.0034 9.89699 29.0884 10.8125Z" fill="white"/>
<path d="M14.0897 15.7405C13.5895 15.2403 12.714 15.2403 12.2138 15.7405C11.7136 16.2407 11.7136 17.1162 12.2138 17.6164C12.714 18.1167 13.5895 18.1167 14.0897 17.6164C14.6317 17.0745 14.6317 16.2407 14.0897 15.7405Z" fill="white"/>
<path d="M14.2339 15.5898C13.6557 15.0145 12.6436 15.0149 12.0662 15.5927C11.488 16.1713 11.488 17.1855 12.0662 17.7637C12.3556 18.0526 12.7536 18.1972 13.1518 18.1972C13.5499 18.1972 13.948 18.053 14.2369 17.7637C14.5467 17.454 14.7126 17.0522 14.7042 16.6328C14.6963 16.2339 14.5291 15.8636 14.2339 15.5898ZM13.9425 17.469C13.5215 17.8897 12.7824 17.8901 12.3614 17.469C11.9404 17.048 11.9404 16.3089 12.3614 15.8879C12.5719 15.6774 12.8616 15.5723 13.1518 15.5723C13.4419 15.5723 13.732 15.6774 13.9425 15.8879L13.9484 15.8937C14.1614 16.0901 14.2819 16.3556 14.2878 16.6416C14.294 16.9463 14.1714 17.2402 13.9425 17.469Z" fill="white"/>
<path d="M17.2579 18.9086C16.7577 18.4084 15.8822 18.4084 15.382 18.9086C14.8818 19.4088 14.8818 20.2843 15.382 20.7845C15.8822 21.2848 16.7577 21.2848 17.2579 20.7845C17.7999 20.2842 17.7999 19.4088 17.2579 18.9086Z" fill="white"/>
<path d="M17.4028 18.7581C17.1256 18.4826 16.7312 18.3246 16.3201 18.3246C15.9074 18.3246 15.5118 18.4834 15.2346 18.7611C14.9574 19.0387 14.7986 19.4339 14.7986 19.8466C14.7986 20.2593 14.957 20.6549 15.2346 20.9321C15.5123 21.2093 15.9078 21.3686 16.3201 21.3686C16.7325 21.3686 17.1285 21.2093 17.3994 20.9372C17.7004 20.6595 17.873 20.2618 17.873 19.8462C17.873 19.4322 17.7016 19.0357 17.4028 18.7581ZM17.1109 20.6369C16.6899 21.0579 15.9512 21.0579 15.5297 20.6369C15.3301 20.4372 15.2159 20.1492 15.2159 19.8465C15.2159 19.5439 15.3301 19.2558 15.5297 19.0561C15.7403 18.8456 16.03 18.7401 16.3201 18.7401C16.6103 18.7401 16.9004 18.8456 17.1109 19.0557L17.1172 19.0615C17.3323 19.2608 17.4561 19.5472 17.4561 19.8465C17.4561 20.1459 17.3323 20.4322 17.1109 20.6369Z" fill="white"/>
<path d="M17.6332 12.1971C17.1329 11.6968 16.2575 11.6968 15.7572 12.1971C15.257 12.6973 15.257 13.5728 15.7572 14.073C16.2575 14.5732 17.1329 14.5732 17.6332 14.073C18.1334 13.5728 18.1335 12.6973 17.6332 12.1971Z" fill="white"/>
<path d="M17.7808 12.0494C17.2025 11.4712 16.1879 11.4712 15.6097 12.0494C15.0315 12.6276 15.0315 13.6418 15.6097 14.2201C15.8986 14.5094 16.2967 14.654 16.6952 14.654C17.0937 14.654 17.4919 14.5094 17.7808 14.2201C18.3585 13.6418 18.3585 12.6276 17.7808 12.0494ZM17.4856 13.9258C17.0858 14.3251 16.3038 14.3251 15.9044 13.9258C15.4834 13.5048 15.4834 12.7656 15.9044 12.3446C16.1149 12.1341 16.4051 12.029 16.6952 12.029C16.9854 12.029 17.2755 12.1341 17.4856 12.3446C17.9066 12.766 17.9066 13.5047 17.4856 13.9258Z" fill="white"/>
<path d="M20.8014 15.3652C20.3012 14.8649 19.4257 14.8649 18.9255 15.3652C18.4252 15.8654 18.4252 16.7409 18.9255 17.2411C19.4257 17.7413 20.3012 17.7413 20.8014 17.2411C21.3433 16.7408 21.3433 15.9071 20.8014 15.3652Z" fill="white"/>
<path d="M20.9491 15.2177C20.6715 14.9405 20.2763 14.7812 19.8636 14.7812C19.4509 14.7812 19.0552 14.9401 18.778 15.2177C18.5008 15.4954 18.3416 15.8906 18.3416 16.3033C18.3416 16.716 18.5004 17.1116 18.778 17.3888C19.0556 17.666 19.4513 17.8253 19.8636 17.8253C20.2759 17.8253 20.6719 17.666 20.9428 17.3938C21.2401 17.1195 21.4081 16.7481 21.4164 16.3479C21.4248 15.9289 21.2588 15.5275 20.9491 15.2177ZM20.6543 17.0937C20.2333 17.5147 19.4942 17.5147 19.0732 17.0937C18.8735 16.894 18.7588 16.6059 18.7588 16.3033C18.7588 16.0006 18.8735 15.7125 19.0732 15.5129C19.2833 15.3024 19.5738 15.1968 19.8636 15.1968C20.1533 15.1968 20.4438 15.3023 20.6543 15.5124C20.8832 15.7408 21.0057 16.0347 20.9995 16.3395C20.9937 16.6255 20.8732 16.8915 20.6543 17.0937Z" fill="white"/>
</g>
<defs>
<clipPath id="clip0_74_976">
<rect width="33" height="33" fill="white"/>
</clipPath>
</defs>
</svg>
