<svg width="33" height="33" viewBox="0 0 33 33" fill="none" xmlns="http://www.w3.org/2000/svg">
<g clip-path="url(#clip0_74_935)">
<path d="M28.0261 10.923L22.0764 4.97334C21.671 4.56825 21.0151 4.56793 20.6097 4.97263L5.28589 20.2619L6.75187 21.7314L21.342 7.17402L25.8257 11.6581L11.2687 26.2479L12.7378 27.7139L28.0271 12.3897C28.4315 11.9842 28.4312 11.3277 28.0261 10.923Z" fill="white"/>
<path d="M29.7905 4.66245L28.3378 3.20961C27.9995 2.8713 27.4744 2.80801 27.0655 3.05634L22.0498 6.10039L23.1266 7.87459L27.446 5.2529L27.7469 5.55416L25.1256 9.87354L26.8998 10.9504L29.9439 5.93462C30.1921 5.52586 30.1289 5.00037 29.7905 4.66245Z" fill="white"/>
<path d="M14.6741 28.1847L4.81558 18.3263C4.4105 17.9209 3.75327 17.9209 3.34825 18.3263C2.94284 18.7314 2.94284 19.3886 3.34825 19.7936L13.2067 29.6521C13.4091 29.8548 13.6747 29.9561 13.9404 29.9561C14.2057 29.9561 14.4717 29.8547 14.6741 29.6521C15.0795 29.2471 15.0795 28.5898 14.6741 28.1847Z" fill="white"/>
<path d="M14.4149 19.1224L4.73022 28.8428L6.20024 30.3074L15.8849 20.5871L14.4149 19.1224Z" fill="white"/>
<path d="M12.3758 17.0833L2.69116 26.8036L4.16118 28.2682L13.8458 18.5479L12.3758 17.0833Z" fill="white"/>
<path d="M8.62057 31.2287L1.77154 24.3793C1.36613 23.9742 0.708903 23.9735 0.303815 24.3793C-0.101272 24.7843 -0.101272 25.4412 0.303815 25.8466L7.15285 32.696C7.35555 32.8987 7.62123 33 7.88684 33C8.15213 33 8.41819 32.8986 8.62051 32.696C9.02566 32.291 9.02566 31.6341 8.62057 31.2287Z" fill="white"/>
<path d="M32.696 0.304179C32.2906 -0.10123 31.6341 -0.10123 31.2287 0.304179L27.5965 3.93623C27.1911 4.34132 27.1911 4.99855 27.5965 5.40357C27.7992 5.60628 28.0645 5.7076 28.3302 5.7076C28.5959 5.7076 28.8615 5.60621 29.0639 5.40357L32.6959 1.77152C33.1014 1.36649 33.1014 0.709266 32.696 0.304179Z" fill="white"/>
<path d="M12.0447 15.1083L10.5771 16.5758L16.4229 22.4215L17.8904 20.954L12.0447 15.1083Z" fill="white"/>
</g>
<defs>
<clipPath id="clip0_74_935">
<rect width="33" height="33" fill="white"/>
</clipPath>
</defs>
</svg>
